<svg width="48" height="48" viewBox="0 0 48 48" fill="none" xmlns="http://www.w3.org/2000/svg">
<path d="M29.2093 33.3023C29.379 33.7224 29.5198 34.1542 29.6316 34.5978C28.8273 34.9845 28.0414 35.4031 27.2741 35.8536C26.5048 36.2992 25.7355 36.7449 24.9662 37.1905C25.2323 37.4875 25.54 37.6861 25.8895 37.7865C26.2439 37.8848 26.6069 37.8589 26.9788 37.7087C27.1719 37.6306 27.3674 37.5096 27.5651 37.3454C27.7676 37.1793 27.9609 36.9973 28.1449 36.7994C28.327 36.5966 28.4965 36.3905 28.6535 36.181C28.8104 35.9716 28.9432 35.7859 29.0519 35.624L30.0329 39.0531C29.9031 39.2741 29.7476 39.4801 29.5665 39.6713C29.3901 39.8605 29.1963 40.0343 28.9851 40.1927C28.7738 40.3511 28.5533 40.4935 28.3236 40.62C28.0938 40.7466 27.863 40.8567 27.6313 40.9503C27.1532 41.1435 26.6898 41.2549 26.2411 41.2845C25.7925 41.3141 25.3595 41.2783 24.9423 41.1772C24.528 41.0694 24.1357 40.9049 23.7655 40.6837C23.3953 40.4626 23.0544 40.1958 22.7429 39.8835C22.4313 39.5713 22.1496 39.2216 21.8978 38.8347C21.646 38.4477 21.4332 38.0393 21.2596 37.6096C21.0781 37.1604 20.9377 36.6948 20.8384 36.2125C20.739 35.7302 20.6875 35.2483 20.6839 34.7666C20.6851 34.283 20.7401 33.8142 20.8488 33.3603C20.9603 32.8995 21.1315 32.468 21.3622 32.0659C21.5929 31.6637 21.8905 31.3019 22.255 30.9805C22.6243 30.6572 23.0673 30.3911 23.584 30.1823C24.0138 30.0087 24.4294 29.911 24.8307 29.8893C25.2349 29.8608 25.6175 29.8972 25.9786 29.9985C26.3426 30.093 26.6845 30.2441 27.0044 30.4519C27.3291 30.6578 27.6269 30.9082 27.8978 31.2032C28.1715 31.4915 28.4178 31.8161 28.6367 32.177C28.8584 32.5312 29.0493 32.9063 29.2093 33.3023ZM26.1596 34.0963C26.105 33.961 26.0349 33.8293 25.9494 33.7009C25.8619 33.5678 25.7609 33.4569 25.6465 33.3683C25.5369 33.2778 25.4143 33.2177 25.2788 33.1882C25.1413 33.1539 24.9929 33.1689 24.8336 33.2333C24.6404 33.3113 24.4904 33.4337 24.3837 33.6004C24.2798 33.7604 24.2069 33.9415 24.165 34.1438C24.1212 34.3412 24.1026 34.5454 24.1091 34.7562C24.1156 34.967 24.1332 35.1565 24.1619 35.3247L26.224 34.2556L26.1596 34.0963Z" fill="#026C9C"/>
<path d="M20.1246 32.472C20.2005 33.1943 20.1598 33.846 20.0026 34.4271C19.8454 35.0083 19.5988 35.5273 19.2629 35.9842C18.9344 36.4403 18.5323 36.8402 18.0565 37.1838C17.5807 37.5274 17.0621 37.8228 16.5009 38.07C15.9464 38.3089 15.3648 38.5056 14.7562 38.6599C14.1467 38.8067 13.5446 38.9152 12.9497 38.9852L13.4967 44.19L8.29201 44.737C8.1128 43.0319 7.93809 41.3338 7.76788 39.6428C7.59768 37.9518 7.42963 36.2455 7.26374 34.5239C7.18316 33.6139 7.0914 32.7051 6.98848 31.7975C6.88555 30.8899 6.80791 29.9721 6.75554 29.0441C7.67889 28.661 8.60967 28.3486 9.54788 28.1069C10.4861 27.8653 11.4615 27.6912 12.4742 27.5848C13.0475 27.5245 13.6259 27.5127 14.2095 27.5492C14.7922 27.5783 15.3547 27.666 15.8971 27.8122C16.4469 27.9577 16.9612 28.1596 17.44 28.418C17.9255 28.6681 18.354 28.9844 18.7255 29.3669C19.0969 29.7494 19.4039 30.199 19.6464 30.7155C19.8955 31.2239 20.0549 31.8094 20.1246 32.472ZM15.2055 33.373C15.1546 32.889 14.9662 32.5286 14.6402 32.2919C14.3208 32.0469 13.9266 31.9491 13.4575 31.9984C13.3011 32.0148 13.1389 32.0469 12.9708 32.0947C12.8093 32.1343 12.6561 32.1805 12.5111 32.2334L12.7198 35.5088C12.8256 35.5127 12.9269 35.5096 13.0237 35.4994C13.1205 35.4893 13.221 35.4787 13.3253 35.4677C13.5933 35.4396 13.8455 35.3679 14.0819 35.2527C14.3256 35.1367 14.5357 34.9867 14.7121 34.8025C14.8877 34.6109 15.0196 34.3976 15.1078 34.1624C15.2027 33.9191 15.2352 33.656 15.2055 33.373Z" fill="#026C9C"/>
<path d="M40.6462 18.7686C40.4456 19.5169 40.1697 20.162 39.8183 20.7037C39.4669 21.2455 39.0558 21.6997 38.5852 22.0663C38.1214 22.429 37.6086 22.7069 37.047 22.9002C36.4853 23.0934 35.8932 23.2184 35.2708 23.275C34.6497 23.3263 34.0056 23.3141 33.3384 23.2385C32.6765 23.1643 32.0088 23.0369 31.3353 22.8564C31.0841 22.7891 30.8397 22.7179 30.602 22.6428C30.3657 22.5623 30.1256 22.475 29.8815 22.381L32.9032 12.0018C33.5413 11.9722 34.1805 12.0031 34.8206 12.0944C35.4674 12.1818 36.0982 12.3079 36.713 12.4726C37.4773 12.6774 38.1516 12.9726 38.7357 13.3583C39.3199 13.744 39.7886 14.2076 40.1419 14.7492C40.4967 15.2854 40.7207 15.8925 40.814 16.5706C40.9141 17.2448 40.8581 17.9775 40.6462 18.7686ZM34.369 20.3865C34.7026 20.4244 35.0197 20.4062 35.3203 20.3321C35.6276 20.254 35.9062 20.1339 36.1559 19.9716C36.4071 19.804 36.6199 19.5975 36.7945 19.3521C36.9759 19.1028 37.1082 18.8232 37.1912 18.5131C37.2729 18.2084 37.3167 17.9166 37.3227 17.6374C37.3302 17.353 37.2876 17.0952 37.1948 16.8641C37.1035 16.6277 36.9553 16.4218 36.7501 16.2465C36.5465 16.0659 36.275 15.9244 35.9358 15.8221L34.369 20.3865Z" fill="#026C9C"/>
<path d="M29.3486 6.875L28.167 21.5059L23.6338 21.7422V7.17578L29.3486 6.875Z" fill="#026C9C"/>
<path d="M22.0672 4.87895L17.0654 13.5793L22.8977 21.6565L17.3693 23.2441L13.1275 18.3874L13.51 23.8952L8.4801 24.6202L6.91378 5.98067L12.6043 5.7017L12.744 11.235L15.8975 5.03644L22.0672 4.87895Z" fill="#026C9C"/>
<path d="M39.5384 35.9427C39.4706 36.2917 39.3775 36.6032 39.2593 36.8773C39.1463 37.1479 39.0019 37.3891 38.8261 37.601C38.6503 37.8128 38.4399 37.9994 38.195 38.1607C37.9501 38.3221 37.6644 38.4662 37.338 38.593L38.382 41.7487L35.2476 41.7522L34.7698 38.6927L33.9325 38.5578L33.2691 41.3259L30.3837 40.765C30.6043 39.7494 30.8218 38.7378 31.0363 37.7302C31.2551 36.7236 31.4771 35.7128 31.7022 34.6981C31.8112 34.1854 31.9193 33.6771 32.0265 33.1733C32.1337 32.6696 32.2507 32.1631 32.3776 31.6538C32.7133 31.5984 33.0407 31.5622 33.3597 31.5453C33.6787 31.5284 33.9942 31.5293 34.3062 31.5482C34.6236 31.5635 34.9401 31.5948 35.2559 31.6423C35.577 31.6861 35.9031 31.7402 36.2341 31.8046C36.7441 31.9037 37.2223 32.0709 37.6686 32.3063C38.1204 32.538 38.5022 32.8304 38.8143 33.1836C39.1263 33.5367 39.3511 33.9448 39.4886 34.4079C39.6305 34.8719 39.6471 35.3835 39.5384 35.9427ZM36.4904 35.5731C36.527 35.3852 36.5336 35.2078 36.5104 35.0408C36.4916 34.8746 36.4416 34.7256 36.3605 34.5938C36.2847 34.4584 36.1768 34.3445 36.0369 34.2523C35.9023 34.1565 35.7343 34.0891 35.533 34.0499C35.4436 34.0325 35.355 34.0223 35.2674 34.0192C35.1807 34.0116 35.0949 34.0112 35.01 34.0179L34.4174 36.4933L34.5785 36.5246C34.7708 36.562 34.9702 36.5752 35.1766 36.5643C35.3875 36.5542 35.5812 36.5129 35.7578 36.4405C35.9388 36.3689 36.0942 36.2621 36.2239 36.1202C36.3581 35.9792 36.447 35.7968 36.4904 35.5731Z" fill="#026C9C"/>
</svg>
