<?xml version="1.0" standalone="no"?>
<!DOCTYPE svg PUBLIC "-//W3C//DTD SVG 20010904//EN"
 "http://www.w3.org/TR/2001/REC-SVG-20010904/DTD/svg10.dtd">
<svg version="1.0" xmlns="http://www.w3.org/2000/svg"
 width="700.000000pt" height="700.000000pt" viewBox="0 0 700.000000 700.000000"
 preserveAspectRatio="xMidYMid meet">
<metadata>
Created by potrace 1.14, written by Peter Selinger 2001-2017
</metadata>
<g transform="translate(0.000000,700.000000) scale(0.100000,-0.100000)"
fill="#000000" stroke="none">
<path d="M2966 6283 c-2 -2 -367 -12 -522 -14 -61 0 -116 -4 -121 -8 -8 -5
-262 -496 -429 -831 -18 -36 -33 -58 -34 -50 -3 33 -18 589 -19 707 l-1 82
-87 -5 c-49 -2 -122 -6 -163 -8 -41 -3 -147 -8 -235 -12 -88 -3 -173 -8 -190
-9 -16 -2 -59 -3 -94 -4 l-63 -1 6 -77 c4 -43 9 -98 11 -123 3 -25 7 -79 10
-120 3 -41 8 -95 10 -120 2 -25 6 -79 10 -120 3 -41 8 -95 10 -120 2 -25 7
-79 10 -120 3 -41 8 -91 10 -110 2 -19 7 -75 10 -125 3 -49 8 -101 10 -115 2
-14 6 -69 10 -123 4 -54 8 -106 10 -115 1 -9 6 -62 9 -117 4 -55 9 -111 11
-125 2 -14 6 -65 10 -115 3 -49 8 -108 10 -130 3 -22 7 -71 10 -108 3 -38 8
-94 10 -125 3 -32 7 -82 10 -112 2 -30 7 -89 11 -130 3 -41 7 -91 9 -110 2
-19 6 -78 10 -130 9 -129 10 -131 48 -125 43 5 455 65 487 70 14 2 50 7 80 11
30 4 58 9 63 10 4 1 21 2 38 3 l31 1 -6 83 c-4 45 -9 109 -11 142 -2 33 -7 96
-10 140 -3 44 -8 109 -10 145 -13 197 -17 257 -21 273 -1 9 1 17 7 17 5 0 9
-3 9 -7 0 -5 19 -28 43 -53 23 -25 83 -93 132 -150 50 -57 97 -111 105 -120 8
-9 42 -47 75 -85 33 -38 76 -87 95 -109 34 -39 66 -76 126 -144 l29 -32 105
31 c58 17 112 32 120 34 8 2 78 22 155 45 142 41 161 47 193 54 9 3 65 19 125
37 l107 32 -23 31 c-13 17 -71 96 -128 176 -57 80 -107 150 -112 155 -12 14
-498 687 -547 758 l-41 58 85 147 c46 81 93 163 105 182 11 19 33 58 49 85 16
28 38 66 49 85 11 19 31 55 45 80 14 25 107 186 207 359 99 173 181 318 181
322 0 6 -237 8 -244 2z"/>
<path d="M4197 5994 c-1 -1 -65 -5 -143 -9 -77 -4 -158 -8 -180 -10 -21 -1
-111 -6 -199 -10 -207 -9 -208 -9 -220 -17 -7 -4 -9 -365 -8 -1055 0 -576 1
-1052 2 -1056 1 -5 56 -6 124 -2 67 4 151 8 187 10 36 2 124 7 195 11 72 4
136 7 143 7 6 0 12 14 13 31 1 17 2 45 4 61 1 17 5 68 9 115 4 47 9 105 11
130 3 25 7 79 10 120 3 41 7 98 10 125 2 28 7 86 10 130 3 44 8 96 10 115 2
19 7 78 10 130 3 52 8 106 10 120 2 14 7 72 11 130 3 58 7 119 10 135 2 17 6
68 9 115 4 47 8 101 10 120 2 19 6 73 10 120 3 47 7 99 9 115 5 32 18 228 20
285 1 34 0 35 -37 35 -21 0 -39 0 -40 -1z"/>
<path d="M4795 5238 c-5 -14 -96 -325 -125 -428 -18 -66 -86 -299 -135 -465
-43 -146 -157 -539 -161 -555 -2 -8 -6 -24 -9 -36 -6 -19 3 -24 92 -52 226
-72 371 -96 578 -96 333 0 562 101 735 324 79 103 158 291 178 430 10 67 9
216 -2 260 -3 14 -8 38 -12 54 -18 82 -93 207 -168 281 -146 144 -334 224
-637 273 -148 23 -327 29 -334 10z m515 -573 c36 -18 86 -69 107 -107 19 -36
25 -182 10 -246 -22 -96 -112 -209 -200 -250 -64 -30 -138 -42 -210 -33 -5 1
-6 5 -2 10 3 5 52 146 109 313 57 167 107 311 111 321 8 19 26 17 75 -8z"/>
<path d="M1834 2978 c-27 -4 -71 -9 -99 -12 -58 -6 -110 -14 -145 -22 -14 -3
-35 -8 -47 -10 -13 -2 -33 -6 -45 -8 -163 -29 -507 -147 -509 -175 -2 -22 7
-155 16 -246 2 -22 6 -62 9 -90 3 -27 8 -77 11 -110 3 -33 8 -71 10 -85 2 -14
6 -59 10 -100 3 -41 8 -91 10 -110 3 -19 7 -64 10 -100 6 -65 9 -105 20 -210
4 -30 8 -77 10 -105 3 -27 7 -72 11 -100 3 -27 7 -72 9 -100 2 -27 7 -70 9
-95 3 -25 8 -69 11 -98 5 -56 12 -127 20 -207 3 -27 8 -72 10 -100 3 -27 7
-66 10 -85 2 -19 7 -57 9 -85 9 -83 18 -179 21 -200 1 -11 3 -26 4 -34 1 -13
78 -11 196 4 47 6 111 13 225 25 58 6 123 12 145 15 82 9 170 18 182 18 8 0
11 10 8 26 -2 14 -7 60 -10 101 -3 41 -8 86 -10 100 -2 14 -6 54 -10 90 -3 36
-7 79 -9 95 -3 17 -7 59 -10 95 -4 36 -9 81 -11 100 -15 120 -16 157 -3 157
46 2 243 39 258 48 3 2 17 6 31 8 13 3 53 15 89 27 443 149 677 437 657 809
-16 295 -150 514 -397 648 -105 57 -262 105 -390 119 -88 9 -256 11 -316 2z
m261 -664 c17 -7 48 -31 67 -52 88 -97 66 -275 -44 -362 -31 -23 -100 -60
-124 -64 -76 -14 -135 -16 -139 -4 -2 7 -6 58 -9 113 -10 187 -17 310 -21 331
-3 18 5 24 48 37 90 28 159 28 222 1z"/>
<path d="M3637 2644 c-1 -1 -22 -4 -47 -7 -100 -13 -254 -78 -325 -138 -132
-113 -211 -258 -240 -444 -12 -83 -8 -219 10 -315 3 -14 7 -36 10 -50 9 -48
47 -156 80 -227 67 -145 167 -271 285 -357 63 -47 86 -59 185 -98 60 -24 242
-33 320 -16 65 14 173 58 242 100 66 39 174 136 203 182 l20 33 -46 159 c-25
87 -47 166 -49 174 -8 33 -45 153 -48 156 -2 2 -25 -27 -53 -64 -67 -92 -167
-188 -228 -219 -96 -49 -201 -35 -289 39 l-28 23 77 45 c43 25 98 57 123 71
26 14 105 60 176 101 72 41 169 94 217 118 98 49 95 41 58 150 -63 182 -140
309 -265 433 -35 34 -135 96 -191 116 -44 17 -188 43 -197 35z m91 -504 c32
-19 92 -102 92 -126 0 -11 -80 -56 -240 -135 l-55 -28 -5 32 c-16 90 9 188 60
239 31 31 45 38 76 38 22 0 54 -9 72 -20z"/>
<path d="M4809 2396 c-2 -3 -23 -6 -46 -7 -36 -3 -43 -7 -48 -28 -3 -14 -7
-35 -10 -46 -2 -11 -25 -114 -50 -230 -25 -115 -70 -322 -101 -460 -30 -137
-61 -281 -69 -320 -9 -38 -24 -108 -34 -155 -11 -47 -17 -87 -15 -90 6 -6 407
-88 412 -84 3 2 29 97 37 134 8 37 47 198 55 231 10 35 11 36 48 29 20 -3 40
-7 45 -8 4 -1 13 -2 21 -2 8 0 17 -12 20 -27 9 -42 22 -126 30 -193 3 -25 8
-56 11 -70 2 -13 7 -42 11 -65 3 -22 8 -47 9 -55 2 -8 4 -21 4 -27 1 -19 451
-19 451 -1 0 13 -95 308 -110 343 -14 31 -34 105 -29 108 2 1 30 15 61 31 32
15 78 46 103 68 46 41 105 120 105 142 0 6 4 16 9 22 20 23 44 144 44 224 0
91 -22 167 -71 245 -56 89 -181 181 -305 225 -55 19 -63 21 -157 39 -30 6 -68
13 -85 16 -39 8 -339 17 -346 11z m444 -392 c63 -42 89 -134 61 -217 -15 -42
-23 -51 -73 -87 -28 -19 -50 -25 -118 -28 -47 -3 -88 -1 -93 4 -8 8 25 168 62
304 7 25 11 49 10 54 -6 19 113 -5 151 -30z"/>
</g>
</svg>
