<?xml version="1.0" standalone="no"?>
<!DOCTYPE svg PUBLIC "-//W3C//DTD SVG 20010904//EN"
 "http://www.w3.org/TR/2001/REC-SVG-20010904/DTD/svg10.dtd">
<svg version="1.0" xmlns="http://www.w3.org/2000/svg"
 width="700.000000pt" height="700.000000pt" viewBox="0 0 700.000000 700.000000"
 preserveAspectRatio="xMidYMid meet">
<metadata>
Created by potrace 1.14, written by Peter Selinger 2001-2017
</metadata>
<g transform="translate(0.000000,700.000000) scale(0.100000,-0.100000)"
fill="#000000" stroke="none">
<path d="M3267 6854 c-1 -1 -54 -4 -117 -8 -63 -3 -144 -11 -180 -17 -200 -32
-523 -125 -705 -204 -114 -49 -172 -76 -260 -121 -539 -277 -1006 -695 -1327
-1189 -65 -100 -132 -214 -160 -270 -8 -16 -19 -39 -26 -50 -40 -70 -152 -343
-187 -455 -17 -58 -64 -224 -70 -250 -2 -8 -6 -26 -9 -40 -3 -14 -8 -37 -10
-53 -3 -15 -7 -35 -10 -45 -3 -9 -7 -35 -11 -57 -3 -22 -10 -67 -15 -100 -32
-213 -43 -533 -26 -720 4 -38 9 -95 12 -125 2 -30 6 -66 9 -80 2 -14 7 -45 10
-70 3 -25 17 -99 30 -165 89 -439 246 -821 491 -1190 297 -447 797 -888 1297
-1146 336 -172 742 -305 997 -325 153 -12 151 -12 160 10 5 12 9 654 9 1427
l1 1406 -72 38 c-40 20 -104 54 -143 75 -38 20 -113 60 -165 87 -52 28 -131
70 -175 93 -44 23 -141 74 -215 113 -74 38 -146 76 -159 84 -13 8 -179 94
-369 190 l-346 175 -18 -22 c-26 -32 -121 -191 -117 -195 10 -8 158 -86 544
-285 263 -136 419 -217 683 -356 197 -105 262 -140 343 -185 l85 -48 -1 -1178
c-2 -1060 -5 -1258 -22 -1286 -28 -47 -694 177 -1032 347 -400 202 -882 651
-1186 1106 -140 211 -288 520 -374 788 -32 101 -86 326 -97 407 -3 28 -8 57
-9 66 -28 146 -28 689 0 899 32 234 70 412 132 604 25 78 48 146 52 151 4 6
16 33 26 60 62 167 234 469 376 657 119 157 195 245 328 378 512 509 1166 825
1901 916 223 28 612 23 815 -11 17 -2 48 -7 70 -11 22 -3 58 -9 80 -14 22 -5
54 -11 70 -14 420 -77 953 -321 1295 -593 498 -396 859 -904 1086 -1530 129
-356 138 -418 137 -973 0 -303 -7 -531 -17 -585 -2 -11 -7 -42 -10 -70 -20
-146 -115 -443 -211 -660 -311 -700 -833 -1258 -1482 -1584 -135 -67 -240
-112 -431 -183 -141 -51 -385 -126 -439 -133 -18 -3 -48 -7 -66 -10 -66 -9
-62 -66 -62 797 0 431 4 886 8 1013 8 258 0 236 94 285 27 13 73 39 103 56 30
17 105 57 165 89 61 32 142 74 180 95 39 20 129 68 200 105 72 37 153 80 180
95 28 15 95 51 150 80 100 53 352 187 455 242 84 45 85 47 65 109 -10 30 -29
78 -43 107 -21 45 -28 52 -46 46 -24 -7 -676 -332 -891 -444 -224 -116 -346
-181 -400 -210 -27 -15 -113 -60 -190 -100 -77 -40 -153 -80 -170 -90 -16 -9
-93 -50 -170 -90 -77 -40 -144 -76 -148 -80 -9 -8 -18 -2244 -10 -2266 6 -17
349 -9 453 11 13 3 42 7 65 11 35 5 134 24 205 39 14 3 43 11 65 17 22 5 47
12 55 13 86 20 336 101 431 140 547 225 998 569 1370 1045 160 205 304 448
432 730 79 174 191 519 212 655 31 198 36 239 51 410 7 88 8 469 0 555 -3 36
-8 97 -11 135 -3 39 -10 95 -15 125 -5 30 -12 73 -15 95 -36 252 -188 665
-361 982 -170 311 -456 667 -714 888 -30 26 -67 58 -81 70 -228 197 -625 432
-934 552 -123 48 -302 111 -335 118 -8 2 -46 10 -85 18 -38 9 -86 18 -105 21
-110 17 -149 22 -245 31 -38 4 -88 8 -110 10 -96 10 -560 25 -568 19z"/>
<path d="M2391 5089 c-29 -60 -51 -112 -48 -115 23 -23 261 -154 451 -247 188
-93 237 -121 241 -139 10 -38 15 -310 15 -790 0 -252 3 -458 8 -459 47 -5 84
-4 94 2 9 6 12 190 14 743 l2 735 -91 52 c-51 29 -117 66 -147 82 -30 17 -71
40 -90 52 -48 29 -350 181 -376 189 -18 6 -27 -7 -73 -105z"/>
<path d="M4395 4393 c-94 -47 -379 -195 -640 -333 -38 -20 -110 -58 -160 -84
l-90 -46 -2 -595 c-2 -557 -1 -594 15 -588 45 15 420 202 426 211 11 17 18
238 20 579 1 263 3 314 16 326 8 8 69 42 135 77 66 35 154 82 195 105 41 23
82 45 90 49 8 4 24 12 35 19 12 7 60 34 107 60 l86 49 -9 33 c-15 52 -86 182
-104 188 -5 3 -60 -20 -120 -50z"/>
</g>
</svg>
